<svg width="27" height="36" viewBox="0 0 27 36" fill="none" xmlns="http://www.w3.org/2000/svg">
<path d="M27 5.37246L27 30.6275C27.0015 31.6246 26.7178 32.6017 26.182 33.4457C25.6462 34.2897 24.88 34.9661 23.9722 35.3966C22.8951 35.9006 21.6967 36.0947 20.5136 35.9569C19.3305 35.819 18.2103 35.3546 17.2807 34.6168L1.83882 21.9892C1.26162 21.4937 0.798712 20.881 0.481453 20.1927C0.164193 19.5044 -7.53731e-07 18.7566 -7.86805e-07 18C-8.19879e-07 17.2434 0.164193 16.4956 0.481453 15.8073C0.798712 15.119 1.26162 14.5063 1.83882 14.0108L17.2807 1.38323C18.2103 0.645359 19.3305 0.181025 20.5136 0.0431449C21.6967 -0.094735 22.8951 0.0993903 23.9722 0.60339C24.88 1.03393 25.6462 1.71035 26.182 2.55435C26.7178 3.39835 27.0015 4.37542 27 5.37246Z" fill="black"/>
</svg>
