<svg width="27" height="36" viewBox="0 0 27 36" fill="none" xmlns="http://www.w3.org/2000/svg">
<path d="M4.42908e-06 5.37246L3.32514e-06 30.6275C-0.00145403 31.6246 0.282152 32.6017 0.817995 33.4457C1.35384 34.2897 2.12001 34.9661 3.02782 35.3966C4.10494 35.9006 5.30333 36.0947 6.4864 35.9569C7.66948 35.819 8.78967 35.3546 9.7193 34.6168L25.1612 21.9892C25.7384 21.4937 26.2013 20.881 26.5185 20.1927C26.8358 19.5044 27 18.7566 27 18C27 17.2434 26.8358 16.4956 26.5185 15.8073C26.2013 15.119 25.7384 14.5063 25.1612 14.0108L9.7193 1.38323C8.78967 0.645359 7.66948 0.181025 6.4864 0.0431449C5.30333 -0.094735 4.10495 0.0993903 3.02782 0.60339C2.12001 1.03393 1.35384 1.71035 0.817997 2.55435C0.282153 3.39835 -0.00145284 4.37542 4.42908e-06 5.37246Z" fill="black"/>
</svg>
